<svg width="39" height="39" viewBox="0 0 39 39" fill="none" xmlns="http://www.w3.org/2000/svg">
<path d="M19.5 3.25001C17.366 3.25001 15.2529 3.67032 13.2814 4.48696C11.3099 5.3036 9.51848 6.50057 8.00953 8.00952C4.96206 11.057 3.25001 15.1902 3.25001 19.5C3.23581 23.2523 4.53505 26.8914 6.92251 29.7863L3.67251 33.0363C3.44703 33.2648 3.29429 33.5549 3.23355 33.8702C3.17282 34.1854 3.20682 34.5116 3.33126 34.8075C3.46623 35.0999 3.68503 35.3456 3.95989 35.5134C4.23474 35.6812 4.55326 35.7635 4.87501 35.75H19.5C23.8098 35.75 27.943 34.038 30.9905 30.9905C34.038 27.943 35.75 23.8098 35.75 19.5C35.75 15.1902 34.038 11.057 30.9905 8.00952C27.943 4.96205 23.8098 3.25001 19.5 3.25001ZM19.5 32.5H8.79126L10.3025 30.9888C10.6052 30.6843 10.775 30.2724 10.775 29.8431C10.775 29.4138 10.6052 29.002 10.3025 28.6975C8.17471 26.5721 6.84967 23.7746 6.55313 20.7818C6.2566 17.789 7.00692 14.7859 8.67626 12.2842C10.3456 9.78257 12.8307 7.93709 15.7081 7.06221C18.5855 6.18733 21.6773 6.33719 24.4566 7.48624C27.2359 8.63529 29.5309 10.7125 30.9505 13.3638C32.3701 16.0152 32.8264 19.0768 32.2418 22.0269C31.6573 24.977 30.0679 27.6332 27.7445 29.5429C25.4211 31.4526 22.5075 32.4976 19.5 32.5Z" fill="black" fill-opacity="0.8"/>
</svg>
