<svg width="47" height="47" viewBox="0 0 47 47" fill="none" xmlns="http://www.w3.org/2000/svg">
<g clip-path="url(#clip0_21_297)">
<circle cx="23.5" cy="23.5" r="23.5" fill="#D8DA6B"/>
<path d="M26.375 29.25V29.9688C26.375 30.7312 26.0721 31.4625 25.533 32.0017C24.9938 32.5408 24.2625 32.8438 23.5 32.8438C22.7375 32.8438 22.0063 32.5408 21.4671 32.0017C20.9279 31.4625 20.625 30.7312 20.625 29.9688V29.25M31.2122 27.7869C30.0586 26.375 29.2442 25.6563 29.2442 21.7638C29.2442 18.1992 27.424 16.9293 25.9258 16.3125C25.7268 16.2307 25.5395 16.043 25.4788 15.8386C25.2161 14.9442 24.4793 14.1562 23.5 14.1562C22.5207 14.1562 21.7836 14.9446 21.5235 15.8395C21.4628 16.0461 21.2755 16.2307 21.0765 16.3125C19.5766 16.9302 17.7581 18.1956 17.7581 21.7638C17.7559 25.6563 16.9414 26.375 15.7879 27.7869C15.3099 28.3718 15.7286 29.25 16.5646 29.25H30.44C31.2715 29.25 31.6875 28.3691 31.2122 27.7869Z" stroke="white" stroke-width="1.25" stroke-linecap="round" stroke-linejoin="round"/>
</g>
<defs>
<clipPath id="clip0_21_297">
<rect width="47" height="47" fill="white"/>
</clipPath>
</defs>
</svg>
