<svg width="47" height="47" viewBox="0 0 47 47" fill="none" xmlns="http://www.w3.org/2000/svg">
<g clip-path="url(#clip0_21_307)">
<circle cx="23.5" cy="23.5" r="23.5" fill="#FFABAB"/>
<path d="M15 30C15 28.9391 15.4214 27.9217 16.1716 27.1716C16.9217 26.4214 17.9391 26 19 26H27C28.0609 26 29.0783 26.4214 29.8284 27.1716C30.5786 27.9217 31 28.9391 31 30C31 30.5304 30.7893 31.0391 30.4142 31.4142C30.0391 31.7893 29.5304 32 29 32H17C16.4696 32 15.9609 31.7893 15.5858 31.4142C15.2107 31.0391 15 30.5304 15 30Z" stroke="white" stroke-width="1.5" stroke-linejoin="round"/>
<path d="M23 22C24.6569 22 26 20.6569 26 19C26 17.3431 24.6569 16 23 16C21.3431 16 20 17.3431 20 19C20 20.6569 21.3431 22 23 22Z" stroke="white" stroke-width="1.5"/>
</g>
<defs>
<clipPath id="clip0_21_307">
<rect width="47" height="47" fill="white"/>
</clipPath>
</defs>
</svg>
