<svg width="37" height="37" viewBox="0 0 37 37" fill="none" xmlns="http://www.w3.org/2000/svg">
<g clip-path="url(#clip0_2_140)">
<path d="M2.3125 6.53975C4.35906 5.68413 7.29362 4.76144 10.1473 4.47469C13.2229 4.16481 15.8314 4.62038 17.3438 6.21369V28.7513C15.1816 27.5257 12.4413 27.3569 9.91369 27.6112C7.18494 27.8888 4.43306 28.6773 2.3125 29.4867V6.53975ZM19.6562 6.21369C21.1686 4.62038 23.7771 4.16481 26.8528 4.47469C29.7064 4.76144 32.6409 5.68413 34.6875 6.53975V29.4867C32.5646 28.6773 29.8151 27.8864 27.0863 27.6136C24.5564 27.3569 21.8184 27.5234 19.6562 28.7513V6.21369ZM18.5 4.12319C16.2222 2.1645 12.9199 1.87313 9.91369 2.17375C6.41256 2.52756 2.87906 3.72775 0.677563 4.72906C0.475563 4.82093 0.304268 4.96899 0.184124 5.15556C0.0639792 5.34214 6.14464e-05 5.55934 0 5.78125L0 31.2188C5.35621e-05 31.4122 0.0486484 31.6026 0.141333 31.7724C0.234018 31.9422 0.36783 32.086 0.530513 32.1907C0.693195 32.2954 0.879547 32.3576 1.0725 32.3716C1.26545 32.3857 1.45884 32.351 1.63494 32.2709C3.67456 31.3459 6.96063 30.2336 10.1449 29.9122C13.4033 29.5838 16.1343 30.1134 17.5981 31.9403C17.7065 32.0753 17.8438 32.1843 17.9998 32.2592C18.1559 32.3341 18.3269 32.3729 18.5 32.3729C18.6731 32.3729 18.8441 32.3341 19.0001 32.2592C19.1562 32.1843 19.2935 32.0753 19.4019 31.9403C20.8657 30.1134 23.5968 29.5838 26.8528 29.9122C30.0394 30.2336 33.3278 31.3459 35.3651 32.2709C35.5412 32.351 35.7346 32.3857 35.9275 32.3716C36.1205 32.3576 36.3068 32.2954 36.4695 32.1907C36.6322 32.086 36.766 31.9422 36.8587 31.7724C36.9514 31.6026 36.9999 31.4122 37 31.2188V5.78125C36.9999 5.55934 36.936 5.34214 36.8159 5.15556C36.6957 4.96899 36.5244 4.82093 36.3224 4.72906C34.1209 3.72775 30.5874 2.52756 27.0863 2.17375C24.0801 1.87081 20.7778 2.1645 18.5 4.12319Z" fill="white"/>
</g>
<defs>
<clipPath id="clip0_2_140">
<rect width="37" height="37" fill="white"/>
</clipPath>
</defs>
</svg>
